<?xml version="1.0" encoding="UTF-8" standalone="no"?>
<svg width="195px" height="50px" viewBox="0 0 195 50" version="1.1" xmlns="http://www.w3.org/2000/svg" xmlns:xlink="http://www.w3.org/1999/xlink" xmlns:sketch="http://www.bohemiancoding.com/sketch/ns">
    <!-- Generator: Sketch 3.2 (9961) - http://www.bohemiancoding.com/sketch -->
    <title>Slice 1</title>
    <desc>Created with Sketch.</desc>
    <defs></defs>
    <g id="Page-1" stroke="none" stroke-width="1" fill="none" fill-rule="evenodd" sketch:type="MSPage">
        <g id="Group" sketch:type="MSLayerGroup">
            <g id="Shape" sketch:type="MSShapeGroup">
                <path d="M24.884,39.323 L1.427,30.808 L33.976,34.612 L24.886,39.323" fill="#D9B42F" transform="translate(17.701500, 35.065500) scale(1, -1) translate(-17.701500, -35.065500) "></path>
                <path d="M24.882,35.254 L27.978,28.071 L6.918,37.997 L24.885,35.254" fill="#FFE188" transform="translate(17.448000, 33.034000) scale(1, -1) translate(-17.448000, -33.034000) "></path>
                <path d="M57.04,18.558 L54.455,17.533 L52.067,13.815 L57.04,18.558" fill="#E83F00" transform="translate(54.553500, 16.186500) scale(1, -1) translate(-54.553500, -16.186500) "></path>
                <path d="M52.061,19.229 L39.361,16.01 L44.9,14.865 L52.061,19.229" fill="#CD2015" transform="translate(45.711000, 17.047000) scale(1, -1) translate(-45.711000, -17.047000) "></path>
                <path d="M52.06,16.835 L40.904,16.263 L44.267,14.864 L52.06,16.836" fill="#E83F00" transform="translate(46.482000, 15.850000) scale(1, -1) translate(-46.482000, -15.850000) "></path>
                <path d="M45.565,15.637 L50.028,24.099 L52.664,32.034 L24.882,15.727 L33.843,14.504 L45.564,15.637" fill="#EA4F86" transform="translate(38.773000, 23.269000) scale(1, -1) translate(-38.773000, -23.269000) "></path>
                <g transform="translate(20.000000, 0.000000)" fill="#00A2C9">
                    <path d="M12.687,30.816 L4.884,7.806 L9.607,10.576 L12.686,30.816" transform="translate(8.785500, 19.311000) scale(1, -1) translate(-8.785500, -19.311000) "></path>
                    <path d="M12.682,6.294 L0.612,13.99 L12.976,0.107 L12.68,6.294" transform="translate(6.794000, 7.048500) scale(1, -1) translate(-6.794000, -7.048500) "></path>
                </g>
                <path d="M32.863,11.856 L18.316,16.315 L33.041,6.895 L32.863,11.857" fill="#5A8794" transform="translate(25.678500, 11.605000) scale(1, -1) translate(-25.678500, -11.605000) "></path>
                <path d="M32.861,18.044 L19.218,11.357 L33.039,13.083 L32.861,18.045" fill="#005971" transform="translate(26.128500, 14.701000) scale(1, -1) translate(-26.128500, -14.701000) "></path>
                <path d="M50.05,12.226 L56.598,22.398 L52.669,20.118 L50.05,12.226" fill="#CD2015" transform="translate(53.324000, 17.312000) scale(1, -1) translate(-53.324000, -17.312000) "></path>
                <path d="M33.541,10.095 L32.687,28.042 L29.608,7.802 L33.542,10.096" fill="#5EB2D1" transform="translate(31.575000, 17.922000) scale(1, -1) translate(-31.575000, -17.922000) "></path>
                <path d="M44.684,30.902 L47.034,21.958 L45.566,19.186 L40.429,28.403 L44.685,30.903" fill="#F59B00" transform="translate(43.731500, 25.044500) scale(1, -1) translate(-43.731500, -25.044500) "></path>
                <path d="M45.566,37.997 L33.845,36.864 L27.98,30.904 L45.566,37.997" fill="#E83F00" transform="translate(36.773000, 34.450500) scale(1, -1) translate(-36.773000, -34.450500) "></path>
                <path d="M45.566,8.931 L32.687,32.031 L33.845,7.801 L45.566,8.934" fill="#BAE2F5" transform="translate(39.126500, 19.916000) scale(1, -1) translate(-39.126500, -19.916000) "></path>
                <path d="M33.536,36.315 L33.84,30.028 L21.606,25.748 L24.878,31.251 L33.535,36.315" fill="#F59B00" transform="translate(27.723000, 31.031500) scale(1, -1) translate(-27.723000, -31.031500) "></path>
                <path d="M24.884,49.208 L33.845,47.985 L27.98,42.026 L0.056,30.807 L24.884,49.209" fill="#FFD130" transform="translate(16.950500, 40.008000) scale(1, -1) translate(-16.950500, -40.008000) "></path>
            </g>
            <path d="M66.09,20 L77.618,20 L77.618,15.688 L75.704,15.688 L75.704,18.196 L69.632,18.196 C69.192,18.196 68.752,18.262 68.752,18.262 L68.752,18.218 C68.752,18.218 69.082,17.91 69.39,17.47 L77.4,5.898 L77.4,4.468 L66.202,4.468 L66.202,8.692 L68.116,8.692 L68.116,6.272 L73.858,6.272 C74.298,6.272 74.738,6.206 74.738,6.206 L74.738,6.25 C74.738,6.25 74.408,6.558 74.1,6.998 L66.09,18.548 L66.09,20 M79.532,16.898 C79.532,19.186 81.38,20.264 83.228,20.264 C85.934,20.264 86.902,17.91 86.902,17.91 L86.946,17.91 C86.946,17.91 86.858,18.196 86.858,18.636 L86.858,18.79 C86.858,19.516 87.254,20 88.244,20 L90.466,20 L90.466,18.35 L89.344,18.35 C89.036,18.35 88.86,18.196 88.86,17.866 L88.86,12.894 C88.86,10.078 87.364,8.604 84.526,8.604 C81.93,8.604 80.302,9.924 80.302,9.924 L81.16,11.442 C81.16,11.442 82.59,10.364 84.35,10.364 C85.714,10.364 86.726,10.98 86.726,12.74 L86.726,13.158 L86.022,13.158 C84.174,13.158 79.532,13.4 79.532,16.898 M81.688,16.722 C81.688,14.588 85.186,14.544 86.198,14.544 L86.748,14.544 L86.748,15.006 C86.748,16.678 85.582,18.614 83.69,18.614 C82.414,18.614 81.69,17.712 81.69,16.722 M92.074,20 L97.706,20 L97.706,18.35 L95.946,18.35 L95.946,14.962 C95.946,12.784 97.178,10.54 99.29,10.54 C101.006,10.54 101.226,11.882 101.226,13.334 L101.226,20 L105.098,20 L105.098,18.35 L103.36,18.35 L103.36,14.874 C103.36,12.674 104.548,10.54 106.638,10.54 C108.31,10.54 108.596,11.772 108.596,13.334 L108.596,20 L112.49,20 L112.49,18.35 L110.73,18.35 L110.73,12.872 C110.73,10.034 109.564,8.604 107.1,8.604 C105.274,8.604 103.734,9.836 103.118,11.222 L103.074,11.222 C102.7,9.418 101.6,8.604 99.818,8.604 C98.014,8.604 96.408,9.99 95.858,11.31 L95.814,11.31 C95.814,11.31 95.88,11.024 95.88,10.672 L95.88,10.1 C95.88,9.286 95.418,8.868 94.472,8.868 L91.964,8.868 L91.964,10.518 L93.328,10.518 C93.636,10.518 93.812,10.672 93.812,10.98 L93.812,18.35 L92.074,18.35 L92.074,20 M114.074,20 L119.706,20 L119.706,18.35 L117.946,18.35 L117.946,14.962 C117.946,12.784 119.178,10.54 121.29,10.54 C123.006,10.54 123.226,11.882 123.226,13.334 L123.226,20 L127.098,20 L127.098,18.35 L125.36,18.35 L125.36,14.874 C125.36,12.674 126.548,10.54 128.638,10.54 C130.31,10.54 130.596,11.772 130.596,13.334 L130.596,20 L134.49,20 L134.49,18.35 L132.73,18.35 L132.73,12.872 C132.73,10.034 131.564,8.604 129.1,8.604 C127.274,8.604 125.734,9.836 125.118,11.222 L125.074,11.222 C124.7,9.418 123.6,8.604 121.818,8.604 C120.014,8.604 118.408,9.99 117.858,11.31 L117.814,11.31 C117.814,11.31 117.88,11.024 117.88,10.672 L117.88,10.1 C117.88,9.286 117.418,8.868 116.472,8.868 L113.964,8.868 L113.964,10.518 L115.328,10.518 C115.636,10.518 115.812,10.672 115.812,10.98 L115.812,18.35 L114.074,18.35 L114.074,20 M135.744,16.898 C135.744,19.186 137.592,20.264 139.44,20.264 C142.146,20.264 143.114,17.91 143.114,17.91 L143.158,17.91 C143.158,17.91 143.07,18.196 143.07,18.636 L143.07,18.79 C143.07,19.516 143.466,20 144.456,20 L146.678,20 L146.678,18.35 L145.556,18.35 C145.248,18.35 145.072,18.196 145.072,17.866 L145.072,12.894 C145.072,10.078 143.576,8.604 140.738,8.604 C138.142,8.604 136.514,9.924 136.514,9.924 L137.372,11.442 C137.372,11.442 138.802,10.364 140.562,10.364 C141.926,10.364 142.938,10.98 142.938,12.74 L142.938,13.158 L142.234,13.158 C140.386,13.158 135.744,13.4 135.744,16.898 M137.9,16.722 C137.9,14.588 141.398,14.544 142.41,14.544 L142.96,14.544 L142.96,15.006 C142.96,16.678 141.794,18.614 139.902,18.614 C138.626,18.614 137.902,17.712 137.902,16.722 M148.154,14.434 C148.154,17.888 150.024,20.264 153.016,20.264 C155.876,20.264 156.778,18.042 156.778,18.042 L156.822,18.042 C156.822,18.042 156.756,18.262 156.756,18.636 L156.756,18.79 C156.756,19.516 157.152,20 158.142,20 L160.364,20 L160.364,18.35 L159.242,18.35 C158.934,18.35 158.758,18.196 158.758,17.866 L158.758,4.468 L154.776,4.468 L154.776,6.118 L156.624,6.118 L156.624,9.638 C156.624,10.122 156.69,10.474 156.69,10.474 L156.646,10.474 C156.646,10.474 155.744,8.604 153.214,8.604 C150.222,8.604 148.154,10.892 148.154,14.434 M150.332,14.434 C150.332,11.904 151.762,10.474 153.544,10.474 C155.656,10.474 156.69,12.41 156.69,14.456 C156.69,17.228 155.128,18.416 153.478,18.416 C151.63,18.416 150.332,16.854 150.332,14.434" id="Shape" fill="#BDBFC1" sketch:type="MSShapeGroup"></path>
            <path d="M63.978,35.15 C63.978,39.682 67.344,43.268 72.008,43.268 C74.164,43.268 78.058,42.498 78.058,40.21 L78.058,38.318 L76.012,38.318 L76.012,39.528 C76.012,40.958 73.24,41.354 72.14,41.354 C68.752,41.354 66.244,38.736 66.244,35.062 C66.244,31.542 68.686,29.1 72.008,29.1 C73.438,29.1 75.792,29.606 75.792,30.97 L75.792,32.18 L77.838,32.18 L77.838,30.288 C77.838,27.89 73.79,27.208 71.92,27.208 C67.432,27.208 63.978,30.596 63.978,35.15 M80.148,37.416 C80.148,40.804 82.832,43.268 86.158,43.268 C89.48,43.268 92.168,40.804 92.168,37.416 C92.168,34.05 89.484,31.608 86.158,31.608 C82.836,31.608 80.148,34.05 80.148,37.416 M82.326,37.416 C82.326,35.106 84.042,33.456 86.154,33.456 C88.244,33.456 89.982,35.106 89.982,37.416 C89.982,39.748 88.244,41.416 86.154,41.416 C84.042,41.416 82.326,39.744 82.326,37.416 M94.008,43.004 L99.64,43.004 L99.64,41.354 L97.88,41.354 L97.88,37.966 C97.88,35.788 99.112,33.544 101.224,33.544 C102.94,33.544 103.16,34.886 103.16,36.338 L103.16,43.004 L107.032,43.004 L107.032,41.354 L105.294,41.354 L105.294,37.878 C105.294,35.678 106.482,33.544 108.572,33.544 C110.244,33.544 110.53,34.776 110.53,36.338 L110.53,43.004 L114.424,43.004 L114.424,41.354 L112.664,41.354 L112.664,35.876 C112.664,33.038 111.498,31.608 109.034,31.608 C107.208,31.608 105.668,32.84 105.052,34.226 L105.008,34.226 C104.634,32.422 103.534,31.608 101.752,31.608 C99.948,31.608 98.342,32.994 97.792,34.314 L97.748,34.314 C97.748,34.314 97.814,34.028 97.814,33.676 L97.814,33.104 C97.814,32.29 97.352,31.872 96.406,31.872 L93.898,31.872 L93.898,33.522 L95.262,33.522 C95.57,33.522 95.746,33.676 95.746,33.984 L95.746,41.354 L94.008,41.354 L94.008,43.004 M116.008,43.004 L121.64,43.004 L121.64,41.354 L119.88,41.354 L119.88,37.966 C119.88,35.788 121.112,33.544 123.224,33.544 C124.94,33.544 125.16,34.886 125.16,36.338 L125.16,43.004 L129.032,43.004 L129.032,41.354 L127.294,41.354 L127.294,37.878 C127.294,35.678 128.482,33.544 130.572,33.544 C132.244,33.544 132.53,34.776 132.53,36.338 L132.53,43.004 L136.424,43.004 L136.424,41.354 L134.664,41.354 L134.664,35.876 C134.664,33.038 133.498,31.608 131.034,31.608 C129.208,31.608 127.668,32.84 127.052,34.226 L127.008,34.226 C126.634,32.422 125.534,31.608 123.752,31.608 C121.948,31.608 120.342,32.994 119.792,34.314 L119.748,34.314 C119.748,34.314 119.814,34.028 119.814,33.676 L119.814,33.104 C119.814,32.29 119.352,31.872 118.406,31.872 L115.898,31.872 L115.898,33.522 L117.262,33.522 C117.57,33.522 117.746,33.676 117.746,33.984 L117.746,41.354 L116.008,41.354 L116.008,43.004 M139.108,39.004 C139.108,41.952 140.362,43.272 142.76,43.272 C145.532,43.272 146.79,41.226 147.006,40.632 L147.05,40.632 C147.05,40.632 147.006,40.918 147.006,41.292 L147.006,41.776 C147.006,42.568 147.446,43.008 148.414,43.008 L150.724,43.008 L150.724,41.38 L149.558,41.38 C149.25,41.38 149.074,41.204 149.074,40.896 L149.074,31.876 L145.074,31.876 L145.074,33.526 L146.944,33.526 L146.944,37.002 C146.944,39.202 145.558,41.336 143.336,41.336 C141.554,41.336 141.246,40.104 141.246,38.564 L141.246,31.876 L137.246,31.876 L137.246,33.526 L139.116,33.526 L139.116,39.004 M152.492,43.004 L158.124,43.004 L158.124,41.354 L156.364,41.354 L156.364,37.834 C156.364,35.612 157.838,33.566 160.082,33.566 C161.864,33.566 162.172,34.798 162.172,36.36 L162.172,43.004 L166.066,43.004 L166.066,41.354 L164.306,41.354 L164.306,35.876 C164.306,33.038 163.162,31.608 160.61,31.608 C157.794,31.608 156.496,33.72 156.276,34.314 L156.232,34.314 C156.232,34.314 156.298,34.028 156.298,33.676 L156.298,33.104 C156.298,32.29 155.858,31.872 154.89,31.872 L152.382,31.872 L152.382,33.522 L153.746,33.522 C154.054,33.522 154.23,33.676 154.23,34.006 L154.23,41.354 L152.492,41.354 L152.492,43.004 M169.344,29.65 L171.588,29.65 L171.588,27.472 L169.344,27.472 L169.344,29.65 M167.65,43.004 L173.282,43.004 L173.282,41.354 L171.522,41.354 L171.522,31.872 L167.54,31.872 L167.54,33.522 L169.388,33.522 L169.388,41.354 L167.65,41.354 L167.65,43.004 M176.142,38.934 C176.142,42.652 178.98,43.092 180.388,43.092 C180.85,43.092 181.158,43.048 181.158,43.048 L181.158,41.266 C181.158,41.266 180.96,41.288 180.652,41.288 C179.816,41.288 178.276,41.002 178.276,38.736 L178.276,33.522 L180.938,33.522 L180.938,31.872 L178.276,31.872 L178.276,28.814 L176.186,28.814 L176.186,31.872 L174.272,31.872 L174.272,33.522 L176.142,33.522 L176.142,38.934 M183.202,45.314 L182.476,46.92 C182.476,46.92 183.444,47.624 184.874,47.624 C186.59,47.624 188.042,46.656 188.79,44.764 L193.19,33.522 L194.576,33.522 L194.576,31.872 L189.648,31.872 L189.648,33.522 L191.078,33.522 L188.614,40.144 C188.438,40.628 188.35,41.112 188.35,41.112 L188.284,41.112 C188.284,41.112 188.24,40.628 188.086,40.144 L185.6,33.522 L187.074,33.522 L187.074,31.872 L181.992,31.872 L181.992,33.522 L183.4,33.522 L187.294,43.202 L186.832,44.302 C186.458,45.182 185.732,45.842 184.786,45.842 C183.84,45.842 183.202,45.314 183.202,45.314" id="Shape" fill="#444A4F" sketch:type="MSShapeGroup"></path>
        </g>
    </g>
</svg>