<svg enable-background="new 0 0 300 200" height="128" viewBox="0 0 128 128" width="128" xmlns="http://www.w3.org/2000/svg"><g transform="matrix(.48321 0 0 .48321 1.1434 46.704)"><g transform="matrix(1.0182 0 0 1.0182 -11.238 -100.08)"><g><path d="m53.73 130c2.96 3.6504 6.25 7.3496 9.8701 11.069-10.54 3.1709-17.45 9.0605-21.76 14.261-6.8198 8.2305-10.43 19.101-9.5996 28.43h-18.15c3.64-7.9 18.17-30.72 39.64-53.76z" fill="#d1a41a"/><path d="m263.99 188.71h-22.07c-50.63-26.42-95.08-45.05-142.3-49.12.1001-6.5703 1.27-14.01 3.52-22.3l-4.3501-1.1699c-2.3101 8.5195-3.52 16.229-3.6602 23.13-4.9199-.33008-9.8701-.49023-14.87-.49023-4.23 0-8.0898.39062-11.61 1.0703-4.5898-4.5801-8.5-8.96-11.82-13.109 21.78-22.681 57.65-43.201 88.87-50.921 8.79 29.22 27.66 49.24 50.56 62.71 1.6797-.95997 3.3301-1.96 4.9502-3.0195l39.95 43.01 1.75-.15039c10.909-.93945 17.109 4.9805 18.75 6.8203 1.21 1.3398 1.9297 2.5703 2.3301 3.54z" fill="#d1a41a"/><path d="m244.5 44.85c.81055 39.69-19.439 71.28-47.79 87.48-48.12-23.97-57.18-84.71-48.98-117.29 2.2798 12.46 6.4302 20.271 15.39 24.101 19.54-5.5908 46.43-6.0312 66.24-.57031 8.25-6 11.45-15.17 13.2-23.18 2.1797 9.3193 1.9297 29.459 1.9394 29.459z" fill="#ffdc76"/></g><g><path d="m130.8 104.18-22.3-14.953 14.96-6.799z"/><path d="m109.86 105.54-16.587-8.427 8.707-5.167z"/><path d="m87.834 116.15-11.421-7.89 7.614-5.71z"/><path d="m198.51 149.87 12.51-5.71-5.44-5.17z"/><path d="m205.31 160.2 15.78-4.08-4.36-4.62z"/><path d="m197.43 51.971 5.44-18.764-13.87.272z"/><path d="m159.63 67.471-11.97.816-1.36-7.887z"/><path d="m157.72 78.077-6.8 1.903-1.36-5.166z"/><path d="m233.87 70.191 8.97 1.36 1.91-5.983z"/><path d="m231.96 81.341 6.8 2.447 1.63-4.895z"/></g><g><path d="m141.92 99.303h26.245v3.2393h-26.245z"/><path d="m141.92 91.525h26.245v3.2402h-26.245z"/><path d="m222.06 99.303h26.244v3.2393h-26.244z"/><path d="m222.06 91.525h26.244v3.2402h-26.244z"/><path d="m212.81 72.316h-27.188-3.0205-12.561v-2.916h13.31c1.6387-7.0176 1.9629-13.725-.0137-17.125-.84375-1.4453-2.0098-2.1211-3.6738-2.1211-7.6094 0-10.753 8.0469-10.884 8.3887l.002-.002-2.7305-1.0244c.15625-.41992 3.9648-10.278 13.612-10.278 2.6924 0 4.834 1.2363 6.1914 3.5703 2.4102 4.1406 2.127 11.305.49414 18.592h23.354c3.1025-9.1152 9.5811-13.413 20.405-13.413v2.915c-11.732 0-15.019 4.9736-17.366 10.498h12.743l-.0293 2.9014-12.646.01465zm1.92 14.402.0186-.0029m-.0186.0029.0186-.0029"/><path d="m214.73 86.718.0186-.0029c-3.459-5.1006-4.5547-9.4551-3.1084-14.413l-2.9707.01465c-1.0352 3.3008-.62012 8.2734 1.9287 12.54h-29.675c1.8057-3.6162 3.4795-8.0254 4.7022-12.54h-3.0205c-1.3477 4.7871-3.2412 9.5244-5.3721 13.277l-.68945 1.2129 16.652 10.482-9.375 6.1777 1.6055 2.4355 10.479-6.9082 11.312 7.3818 1.5537-2.4678-10.488-6.4883s15.682-10.187 16.461-10.684c-.005-.0068-.008-.01269-.0127-.01856zm-18.86 8.8086-12.317-7.7549 24.071.0059z"/></g><g><path d="m249.39 41.333c-.0185-5.0703-1.5976-26.5-4.5-32.4-7.8691 2.9902-22.189 12.68-25.431 22.588-15.532-2.3193-33.042-2.0449-48.381.60938-2.5625-10.66-15.424-18.818-25.127-23.414-4.0928 6.9062-5.9062 22.92-5.4448 34.279-.0176.01172-.0366.02344-.0542.03613 1.7998 47.7 25.2 77.399 55.799 95.399 31.481-17.988 53.972-53.057 53.101-97.119.0127.0078.0264.01367.0381.02148zm-26.196-9.1963c.11426.02051.22852.04199.34375.06348-.11425-.02148-.22851-.04297-.34375-.06348zm-1.958-.33789c.27539.04395.55371.09375.83007.14062-.27636-.04687-.55273-.09473-.83007-.14062zm23.257 12.976c.80957 39.69-19.44 71.279-47.79 87.48-48.118-23.977-57.183-84.711-48.977-117.29 2.2827 12.455 6.4243 20.267 15.394 24.099 19.533-5.5908 46.423-6.0322 66.231-.56934 8.2549-6.002 11.456-15.17 13.204-23.18 2.1836 9.3213 1.9316 29.455 1.9385 29.459z"/><path d="m265.02 182.09c-4.9414-5.5283-14.623-8.1445-22.707-7.9512-5.7383-6.8301-39.004-41.861-39.004-41.861l-2.3057 2.9033 40.162 43.238 1.7432-.14941c10.912-.93457 17.115 4.9834 18.757 6.8193 1.2041 1.3467 1.9307 2.5752 2.3262 3.5391h-22.075c-50.63-26.42-95.08-45.05-142.3-49.11.10352-6.5713 1.2734-14.01 3.5181-22.299l-4.3433-1.1768c-2.3076 8.5205-3.5234 16.236-3.6606 23.133-4.9199-.32617-9.8721-.49512-14.868-.49512-4.2368 0-8.0952.39356-11.614 1.0772-4.5898-4.5869-8.5-8.959-11.823-13.108 21.931-22.85 58.149-43.501 89.529-51.094l-1.02-4.397c-33.79 8.149-70.776 30.331-91.387 51.761-9.565-12.91-13.36-23.503-14.487-31.531-1.424-10.14.997-19.442 6.999-26.9 9.397-11.674 22.749-12.496 36.477-10.187-.26807 2.168.01709 4.2402.88525 5.5225 3.6309 5.3623 23.144 7.2461 34.791 2.0498-8.5952-12.045-26.006-17.926-30.83-15.569-1.5981.78027-2.8037 2.2139-3.6299 3.8857-4.7451-.84863-9.458-1.4805-12.903-1.4551-12.107.08887-21.363 4.3193-28.296 12.933-6.8018 8.4502-9.5508 18.944-7.9502 30.347 1.5161 10.8 6.8633 22.286 15.825 34.198-1.4888 1.5967-2.9277 3.1738-4.3125 4.7227-21.843 24.441-37.81 50.65-37.81 54.993v2.25h28.816l-.50488-2.668c-1.6274-8.6006 1.6226-19.351 8.2793-27.385 4.1792-5.044 11.1-10.801 21.968-13.457 9.6631 9.4307 21.975 19.446 35.679 29.109h21.414v-2.25c0-2.5391-1.2588-4.7617-3.5449-6.2568-3.3828-2.2119-8.605-2.5166-13.402-.88086-4.5732-5.0928-7.1372-11.896-7.6909-20.347 46.474 4.1152 90.927 22.883 141.08 49.085h27.598l.36133-1.8086c.51563-2.5752-.88769-6.0254-3.752-9.2295zm-223.18-26.84c-6.8159 8.2266-10.429 19.094-9.6011 28.424h-18.153c3.6475-7.8936 18.176-30.712 39.644-53.76 2.958 3.6562 6.2529 7.3496 9.8721 11.073-10.54 3.168-17.45 9.0596-21.762 14.263z"/></g></g><path d="m22.721 107.85v5.5762h14.037v39.744h6.1523v-.5-39.244h14.037v-5.5762zm201.06 3.3945-2.1641 7.2285-4.8457 2.1309v3.252h4.7598v19.266c0 3.4643.8256 6.1476 2.5469 7.9609s4.2906 2.6934 7.5918 2.6934c.88156 0 1.8568-.0928 2.9258-.27735l.01-.002c1.0923-.16551 1.9342-.38 2.5566-.67969l.28321-.13672v-4.8301l-.64063.1875c-.45182.13178-1.0921.26951-1.9023.4082-.001.00018-.003-.00018-.004 0-.8021.11718-1.6348.17773-2.5.17773-1.5495 0-2.683-.47632-3.5371-1.4394-.84733-.9555-1.2988-2.3537-1.2988-4.2754v-19.053h9.6406v-4.9121h-9.6406v-7.6992h-3.7812zm-147.96 7.1c-4.915 0-8.8443 1.5737-11.65 4.7148-2.8071 3.122-4.1895 7.4757-4.1895 12.975 0 3.556.63887 6.6854 1.9297 9.3711 1.2898 2.6836 3.1377 4.7677 5.5254 6.2129 2.3854 1.4438 5.1228 2.1641 8.1719 2.1641 4.915 0 8.8536-1.5728 11.68-4.7129 2.8263-3.1613 4.2207-7.5349 4.2207-13.035 0-5.3616-1.4077-9.6852-4.25-12.883-2.8215-3.197-6.6789-4.8066-11.438-4.8066zm38.955 0c-2.213 0-4.2399.4733-6.0527 1.4219h-.002c-1.5288.80937-2.7171 1.9559-3.6699 3.3106l-.74219-4.127h-5.0098v34.227h6.0332v-17.932c0-4.247.73502-7.2351 2.0762-8.9688l.002-.002c1.3696-1.762 3.4939-2.6543 6.5449-2.6543 2.3126 0 3.9051.62358 4.9238 1.8242h.002l.002.002c1.0233 1.1878 1.5762 3.039 1.5762 5.6152v22.115h6.0312v-19.053c0-3.6722.74226-6.3186 2.1289-7.9863 1.3858-1.6667 3.5198-2.5176 6.5566-2.5176 2.2916 0 3.8749.62246 4.8945 1.8242l.002.002c1.0233 1.1878 1.5762 3.039 1.5762 5.6152v22.115h.5 5.5332v-22.176c0-4.3152-.95319-7.5401-2.959-9.5918l-.002-.002c-1.9758-2.0604-4.9433-3.0625-8.7871-3.0625-2.475 0-4.7042.52355-6.6621 1.5762-1.777.95536-3.1388 2.28-4.1602 3.875-1.7724-3.5761-5.274-5.4512-10.336-5.4512zm56.355 0c-5.0535 0-9.045 1.5693-11.834 4.7148v.002h-.002c-2.7678 3.1453-4.125 7.5771-4.125 13.215 0 5.4971 1.3392 9.8283 4.0664 12.912l.002.002c2.748 3.0627 6.6464 4.5918 11.559 4.5918 3.432 0 6.3121-.58368 8.627-1.7832l.26953-.14062v-5.5059l-.68946.2832c-2.8588 1.1713-5.6311 1.752-8.3281 1.752-3.1211 0-5.377-1.0202-6.9394-3.0781-1.5457-2.0629-2.3535-5.0802-2.3535-9.0938 0-4.2394.83811-7.352 2.4258-9.377s3.9304-3.0371 7.1992-3.0371c.9605 0 2.0887.14457 3.375.4414h.004l.002.002c1.2893.2777 2.4762.63343 3.5586 1.0664l.48047.19141 1.8711-5.1738-.39258-.20117c-.97058-.49607-2.258-.90664-3.8809-1.2559-1.6301-.35078-3.2621-.52734-4.8945-.52734zm28.465.0605c-2.0033 0-4.0065.25814-6.0059.77344h-.002c-1.9762.51464-3.8036 1.2269-5.4785 2.1367l-.39062.21289 1.9121 4.7617.48242-.23438c3.4497-1.675 6.5131-2.498 9.1797-2.498 2.3809 0 4.0024.59716 4.9922 1.7129l.002.002.002.004c1.013 1.1035 1.5664 2.8871 1.5664 5.4219v1.5762l-5.1543.16797c-5.4167.16344-9.5256 1.123-12.33 2.9609-2.8048 1.8382-4.252 4.5998-4.252 8.0879 0 3.2315.98072 5.8124 2.9531 7.6133v.002h.002c1.9874 1.795 4.7156 2.6758 8.0957 2.6758 2.5148 0 4.6353-.36937 6.3574-1.1348h.002c1.5921-.71839 3.1389-2.0695 4.6719-3.8789l.93164 4.4082h.40625 4.2285v-23.176c0-3.9615-.98733-6.9421-3.041-8.8242-2.0269-1.8759-5.0957-2.7715-9.1309-2.7715zm-123.93 5.2148c3.2245 0 5.5513 1.0319 7.1523 3.1094l.002.002.002.002c1.6209 2.0595 2.4688 5.1447 2.4688 9.3008 0 4.1972-.84939 7.3231-2.4727 9.4238v.002c-1.6022 2.079-3.909 3.1094-7.0918 3.1094-3.1817 0-5.4869-1.0396-7.0898-3.1387-1.6045-2.1011-2.4434-5.219-2.4434-9.3965 0-4.2193.83075-7.3291 2.4102-9.3652 1.5803-2.0372 3.8777-3.0488 7.0625-3.0488zm130.07 13.238v2.4785c0 2.9952-.85264 5.2392-2.543 6.8535l-.002.002c-1.673 1.6159-3.9784 2.4375-7.0195 2.4375-1.8994 0-3.3106-.44921-4.3106-1.3027l-.002-.002c-.97075-.84603-1.4629-2.0558-1.4629-3.7734 0-2.1981.7792-3.6918 2.4023-4.6992 1.6436-1.0273 4.4658-1.6648 8.4238-1.8047h.002l4.5117-.18945z"/></g></svg>